<?xml version="1.0" encoding="iso-8859-1"?>
<!-- Generator: Adobe Illustrator 19.0.0, SVG Export Plug-In . SVG Version: 6.00 Build 0)  -->
<svg version="1.1" id="Capa_1" xmlns="http://www.w3.org/2000/svg" xmlns:xlink="http://www.w3.org/1999/xlink" x="0px" y="0px"
	 viewBox="0 0 512 512" style="enable-background:new 0 0 512 512;" xml:space="preserve">
<g>
	<g>
		<path d="M431,120.833c-4.143,0-7.5,3.358-7.5,7.5V497h-335v-16.5c0-4.142-3.357-7.5-7.5-7.5s-7.5,3.358-7.5,7.5v24
			c0,4.142,3.357,7.5,7.5,7.5h350c4.143,0,7.5-3.358,7.5-7.5V128.333C438.5,124.191,435.143,120.833,431,120.833z"/>
	</g>
</g>
<g>
	<g>
		<path d="M431,0H256c-4.143,0-7.5,3.358-7.5,7.5s3.357,7.5,7.5,7.5h167.5v35h-223V15h23.833c4.143,0,7.5-3.358,7.5-7.5
			s-3.357-7.5-7.5-7.5H193H81c-4.143,0-7.5,3.358-7.5,7.5v440.25c0,4.142,3.357,7.5,7.5,7.5s7.5-3.358,7.5-7.5V65h335v31
			c0,4.142,3.357,7.5,7.5,7.5s7.5-3.358,7.5-7.5V7.5C438.5,3.358,435.143,0,431,0z M185.5,50h-97V15h97V50z"/>
	</g>
</g>
<g>
	<g>
		<path d="M336,385.5H176c-15.163,0-27.5,12.336-27.5,27.5v20c0,15.164,12.337,27.5,27.5,27.5h160c15.163,0,27.5-12.336,27.5-27.5
			v-20C363.5,397.836,351.163,385.5,336,385.5z M348.5,433c0,6.893-5.607,12.5-12.5,12.5H176c-6.893,0-12.5-5.607-12.5-12.5v-20
			c0-6.893,5.607-12.5,12.5-12.5h160c6.893,0,12.5,5.607,12.5,12.5V433z"/>
	</g>
</g>
<g>
	<g>
		<circle cx="110" cy="32.5" r="7.5"/>
	</g>
</g>
<g>
	<g>
		<circle cx="138" cy="32.5" r="7.5"/>
	</g>
</g>
<g>
	<g>
		<circle cx="166" cy="32.5" r="7.5"/>
	</g>
</g>
<g>
	<g>
		<path d="M204.5,283l-52-39l52-39c3.313-2.485,3.985-7.187,1.5-10.5c-2.484-3.313-7.187-3.985-10.5-1.5l-60,45
			c-1.889,1.417-3,3.639-3,6c0,2.361,1.111,4.583,3,6l60,45c1.35,1.012,2.928,1.5,4.494,1.5c2.28,0,4.532-1.036,6.006-3
			C208.485,290.187,207.813,285.485,204.5,283z"/>
	</g>
</g>
<g>
	<g>
		<path d="M376.5,238l-60-45c-3.314-2.484-8.015-1.814-10.5,1.5c-2.485,3.313-1.813,8.015,1.5,10.5l52,39l-52,39
			c-3.313,2.485-3.985,7.187-1.5,10.5c1.474,1.965,3.726,3,6.006,3c1.565,0,3.146-0.489,4.494-1.5l60-45c1.889-1.417,3-3.639,3-6
			C379.5,241.639,378.389,239.417,376.5,238z"/>
	</g>
</g>
<g>
	<g>
		<path d="M292.09,164.166c-3.778-1.71-8.218-0.029-9.924,3.745l-66,146c-1.706,3.774-0.03,8.217,3.744,9.923
			c1.003,0.454,2.053,0.668,3.085,0.668c2.856,0,5.586-1.641,6.839-4.413l66-146C297.54,170.315,295.864,165.872,292.09,164.166z"/>
	</g>
</g>
<g>
</g>
<g>
</g>
<g>
</g>
<g>
</g>
<g>
</g>
<g>
</g>
<g>
</g>
<g>
</g>
<g>
</g>
<g>
</g>
<g>
</g>
<g>
</g>
<g>
</g>
<g>
</g>
<g>
</g>
</svg>
